<svg width="16" height="16" viewBox="0 0 16 16" fill="none" xmlns="http://www.w3.org/2000/svg">
<path fill-rule="evenodd" clip-rule="evenodd" d="M13.1404 1.827C13.1407 1.827 13.1411 1.82735 13.1418 1.82807L14.172 2.85843C14.1727 2.85896 14.1729 2.85932 14.1731 2.85985C14.1732 2.86021 14.1732 2.86057 14.1731 2.86093C14.1731 2.86146 14.1727 2.86182 14.172 2.86253L9.0345 8.00003L14.172 13.1375C14.1727 13.1382 14.1729 13.1386 14.1731 13.1391C14.1732 13.1395 14.1732 13.14 14.1731 13.1404C14.1731 13.1407 14.1727 13.1411 14.172 13.1418L13.1416 14.172C13.1411 14.1727 13.1407 14.1729 13.1404 14.1731C13.14 14.1732 13.1395 14.1732 13.1391 14.1731C13.1386 14.1731 13.1382 14.1727 13.1375 14.172L8.00003 9.0345L2.86253 14.172C2.86182 14.1727 2.86146 14.1729 2.86093 14.1731C2.86052 14.1732 2.86008 14.1732 2.85968 14.1731C2.85932 14.1731 2.85896 14.1727 2.85825 14.172L1.82807 13.1416C1.82735 13.1411 1.82718 13.1407 1.827 13.1404C1.82687 13.14 1.82687 13.1395 1.827 13.1391C1.827 13.1386 1.82735 13.1382 1.82807 13.1375L6.96557 8.00003L1.82807 2.86253C1.82735 2.86182 1.82718 2.86146 1.827 2.86093C1.82687 2.86052 1.82687 2.86008 1.827 2.85968C1.827 2.85932 1.82735 2.85896 1.82807 2.85825L2.85843 1.82807C2.85896 1.82735 2.85932 1.82718 2.85968 1.827C2.86008 1.82687 2.86052 1.82687 2.86093 1.827C2.86146 1.827 2.86182 1.82735 2.86253 1.82807L8.00003 6.96557L13.1375 1.82807C13.1382 1.82735 13.1386 1.82718 13.1391 1.827C13.1395 1.82687 13.14 1.82687 13.1404 1.827Z" fill="#9BA1A8"/>
</svg>
